# xmcd
# 
# Track frame offsets:
#     150
#     14699
#     30909
#     44908
#     62202
#     76824
#     91036
#     104097
#     119235
#     132973
# 
# Disc length: 2024
# 
# Revision: 0
# Processed by: cddbd v1.5.2PL0 Copyright (c) Steve Scherf et al.
# Submitted via: fre:ac v1.0.31
# 
DISCID=8a07e60a
DTITLE=Bishop Briggs - Church of Scars
DYEAR=2018
DGENRE=Pop
TTITLE0=Tempt my Trouble
TTITLE1=River
TTITLE2=Lyin'
TTITLE3=White Flag
TTITLE4=Dream
TTITLE5=Wild Horses
TTITLE6=Hallowed Ground
TTITLE7=Water
TTITLE8=The Fire
TTITLE9=Hi-Lo (Hollow)
EXTD=
EXTT0=
EXTT1=
EXTT2=
EXTT3=
EXTT4=
EXTT5=
EXTT6=
EXTT7=
EXTT8=
EXTT9=
PLAYORDER=
